<?xml version="1.0" encoding="utf-8"?>
<!-- Generator: Adobe Illustrator 27.3.1, SVG Export Plug-In . SVG Version: 6.00 Build 0)  -->
<svg version="1.1" id="Layer_1" xmlns="http://www.w3.org/2000/svg" xmlns:xlink="http://www.w3.org/1999/xlink" x="0px" y="0px"
	 viewBox="0 0 203.4 80" style="enable-background:new 0 0 203.4 80;" xml:space="preserve">
<style type="text/css">
	.st0{fill:#FDCC0F;}
</style>
<g>
	<path class="st0" d="M13.9,74c-0.5,0-0.9-0.2-1.3-0.5C4.5,65.3,0,54.5,0,43s4.5-22.3,12.6-30.4S31.5,0,43,0s22.3,4.5,30.4,12.6
		c0.7,0.7,0.7,1.9,0,2.6s-1.9,0.7-2.6,0C63.5,7.7,53.6,3.6,43,3.6S22.6,7.7,15.2,15.2S3.6,32.5,3.6,43s4.1,20.4,11.5,27.9
		c0.7,0.7,0.7,1.9,0,2.6C14.8,73.8,14.4,74,13.9,74z"/>
	<circle class="st0" cx="17.7" cy="75.6" r="1.8"/>
	<path class="st0" d="M43,6.6C22.9,6.6,6.6,22.9,6.6,43S22.9,79.4,43,79.4S79.4,63.1,79.4,43S63.1,6.6,43,6.6z M37.9,76
		c-1,0-1.8-0.8-1.8-1.8c0-1,0.8-1.8,1.8-1.8c1,0,1.8,0.8,1.8,1.8C39.7,75.2,38.9,76,37.9,76z M43,76.4c-1,0-1.8-0.8-1.8-1.8
		s0.8-1.8,1.8-1.8c16.4,0,29.7-13.3,29.7-29.7c0-16.4-13.3-29.8-29.7-29.8c-1,0-1.8-0.8-1.8-1.8S42,9.7,43,9.7
		c18.4,0,33.3,15,33.3,33.3S61.4,76.4,43,76.4z"/>
	<g>
		<path d="M20.8,28.6h4.9L34.1,51h-4.7l-1.9-5.4h-8.6L17.1,51h-4.7L20.8,28.6z M26.1,41.8l-2-5.6l-0.8-2.7h-0.2l-0.8,2.7l-2,5.6
			H26.1z"/>
		<path d="M39,50.5c-1.2-0.7-2.2-1.8-2.8-3c-0.6-1.3-1-2.7-1-4.4c0-1.6,0.3-3.1,1-4.4c0.6-1.3,1.6-2.3,2.8-3s2.5-1.1,3.9-1.1
			c1,0,2,0.2,2.9,0.7c0.8,0.5,1.4,1,1.9,1.8h0.2l-0.2-2.2v-6.2h4.1V51H48v-1.9h-0.2c-0.4,0.7-1,1.3-1.8,1.7
			c-0.8,0.5-1.8,0.6-2.9,0.6C41.4,51.5,40.1,51.2,39,50.5z M45.7,47.1c0.6-0.4,1.2-1,1.6-1.7c0.4-0.7,0.6-1.5,0.6-2.5
			s-0.2-1.8-0.6-2.5c-0.4-0.7-1-1.3-1.6-1.7s-1.4-0.6-2.2-0.6c-0.7,0-1.4,0.2-2.1,0.6c-0.7,0.4-1.2,1-1.6,1.7
			c-0.4,0.7-0.6,1.5-0.6,2.5s0.2,1.8,0.6,2.5c0.4,0.7,1,1.3,1.6,1.7s1.4,0.6,2.1,0.6C44.3,47.8,45,47.5,45.7,47.1z"/>
		<path d="M57,50.3c-1.2-0.8-2-1.8-2.5-3.1l3.6-1.6c0.3,0.7,0.8,1.3,1.4,1.7c0.6,0.4,1.3,0.6,2.2,0.6c0.8,0,1.4-0.2,1.9-0.4
			c0.5-0.2,0.7-0.6,0.7-1.2c0-0.5-0.2-0.9-0.6-1.2c-0.4-0.2-1-0.5-2.1-0.7L59.8,44c-1.3-0.3-2.4-0.9-3.2-1.7
			c-0.9-0.8-1.3-1.8-1.3-3.1c0-0.9,0.2-1.8,0.8-2.5s1.3-1.3,2.2-1.7c1-0.4,2-0.6,3.1-0.6c3.3,0,5.5,1.2,6.6,3.5l-3.5,1.5
			c-0.6-1.1-1.6-1.7-3-1.7c-0.7,0-1.3,0.2-1.7,0.4s-0.6,0.6-0.6,1c0,0.7,0.7,1.3,2.2,1.7l2.3,0.6c1.6,0.4,2.8,1,3.6,1.8
			s1.2,1.8,1.2,3c0,1-0.3,1.9-0.9,2.7s-1.4,1.4-2.4,1.8c-1.2,0.6-2.3,0.9-3.6,0.9C59.7,51.5,58.1,51.1,57,50.3z"/>
	</g>
	<g>
		<path d="M143.4,54c0.4,0,1,0.4,1.2,0.8c0.3,0.4,0.2,0.7-0.2,0.7c-11.2-0.8-19.4-0.6-25.4,0.1c-3.5,4.9-7.5,9.7-9.3,9.7
			c-2.4,0-4.5-1.1-5.6-2.7c-0.6-0.9-0.8-1.9-0.4-2.8c0.4-0.9,1.2-1.7,2.6-2.6c2.2-1.3,5.8-2.4,11.3-3.1c1.2-1.6,3-4.4,4-5.9
			c-1.6,1.4-5,2.7-6.2,2.5c-1.9-0.3-2.3-1.1-2-2.4c0.7-3,6.4-7,9.8-3.5c1.2-1.1,2-2,2-2c0.2-0.2,0.6-0.1,1.1,0.2s0.7,0.8,0.6,1
			l-0.6,0.8h-0.1c0,0-2.7,4.3-5.9,9C126,53.3,133.6,53.3,143.4,54z M116.2,56c-4,0.7-6.7,1.6-8.5,2.7c-1.3,0.7-2.1,1.6-2.4,2.3
			s-0.2,1.3,0.1,1.7c0.5,0.6,1.6,1,3.1,1.1C110,63.7,113.1,60.2,116.2,56z M122.5,45.5c-2.4-2.6-9.4,4.2-6.7,4.3
			C117.2,49.9,121.1,47.7,122.5,45.5z"/>
		<path d="M134.7,45.8c-2.5,1-5.3,1.3-5.4,1.3c-3.6,6.4,10.7,1,12.3-1.5c0.2-0.3,0.7-0.6,1.2-0.2c0.4,0.3,0.4,0.5,0.3,0.8
			c-1.5,2.1-9.7,6.8-13.4,5.1c-1.8-0.8-2.9-2.6-2.5-4.3c0.3-1.1,1.1-2.2,2.1-3.2c1.1-1,2.3-1.9,3.4-2.6c1.5-0.9,3-1.4,3.5-1.3
			c0.5,0.1,0.9,0.3,1.3,0.7c0.5,0.5,0.7,1,0.6,1.6c-0.1,0.4-0.3,0.8-0.5,1.2C137,44.3,135.9,45.3,134.7,45.8z M130.9,45.1
			c0.7-0.2,1.5-0.4,2.4-0.7c1.1-0.5,2.1-1.4,2.6-2.2c0.1-0.2,0.2-0.3,0.3-0.5c-0.6,0.2-1.3,0.6-2.1,1
			C133.1,43.4,131.9,44.2,130.9,45.1z"/>
		<path d="M143.2,42.9c0.2-0.2,0.7-0.1,1.1,0.2c0.5,0.3,0.7,0.8,0.5,1l-1.3,2c2.9-2,6-3.9,7.1-3.6h0.1c1.6,0.4,1.8,1.2,1.5,2.3
			c-0.2,0.5-0.5,1-0.9,1.7c-0.7,1.1-1.5,2.4-1.5,2.4c1.7,0.9,7.4-3.2,7.5-3.2c0.2-0.2,0.7-0.7,1.2-0.3c0.5,0.3,0.2,0.4-0.1,0.7
			c0,0-5.8,5.6-8.5,4.1c-2.4-1.3-1.2-3.2-0.2-4.9c0.2-0.3,0.4-0.7,0.6-1c-3,1.3-10,6.8-10.3,7c-0.2,0.2-0.6,0-1.1-0.3
			c-0.4-0.4-0.7-0.8-0.5-1L143.2,42.9z"/>
		<path d="M164.7,46.4c-0.2,0.3-0.6,0.2-1.1-0.2c-0.5-0.3-0.7-0.8-0.6-1c0.1,0,0.9-1.5,0.7-1.5c-1,0-3.2,1.1-4.8,2.7
			c-0.6,0.6-1.2,1.2-1.6,1.8c-0.4,0.6-0.6,1.2-0.6,1.7c0,0.4,0.1,0.7,0.4,1c2.2,1.6,13.1-5.1,13.1-5.1c0.2,0,0.7-0.6,1.1-0.5
			c0.4,0.4,0.6,0.8,0.4,1c-0.1,0-11.5,8.1-15,5.4c-1.2-0.9-1.6-1.8-1.6-2.8c0-0.7,0.3-1.4,0.7-2s1-1.3,1.6-1.9
			c1.7-1.6,4.1-2.9,5.3-2.8C167.1,42.3,164.7,46.4,164.7,46.4z"/>
		<path d="M198.6,54c0.4,0,1,0.4,1.2,0.8c0.3,0.4,0.2,0.7-0.2,0.7c-11.2-0.8-19.4-0.6-25.4,0.1c-3.5,4.9-7.5,9.7-9.3,9.7
			c-2.4,0-4.5-1.1-5.6-2.7c-0.6-0.9-0.8-1.9-0.4-2.8c0.4-0.9,1.2-1.7,2.6-2.6c2.2-1.3,5.8-2.4,11.3-3.1c1.4-1.9,2.7-3.8,3.8-5.5
			c-1.6,1.2-3.3,2.1-4.4,2c-0.5,0-0.8-0.1-1.2-0.3c-1.1-0.5-1.6-1.2-1.6-2.1c-0.1-0.5,0.2-1.2,0.5-1.9c0.7-1.4,2.1-3.1,3.8-4.8
			c0.2-0.2,0.7,0,1.2,0.3c0.4,0.4,0.6,0.8,0.4,1c-1.7,1.6-3,3.3-3.7,4.6c-0.1,0.2-0.2,1.1,0.1,1.3c3.6,0.7,9.9-6.8,9.5-7l0,0
			c0.2-0.2,0.6-0.1,1.1,0.3c0.4,0.3,0.7,0.8,0.5,1l-1.2,1.7h-0.1c0,0-2.7,4.3-5.9,9C181.2,53.3,188.8,53.3,198.6,54z M171.4,56
			c-4,0.7-6.7,1.6-8.5,2.7c-1.3,0.7-2.1,1.6-2.4,2.3c-0.3,0.7-0.2,1.3,0.1,1.7c0.5,0.6,1.6,1,3.1,1.1
			C165.2,63.7,168.3,60.2,171.4,56z"/>
	</g>
	<path d="M114.9,38.6c1.7-3.3,3-6.2,3.9-8.6c0.5-1.4,0.5-2.3,0.1-2.8c-0.3-0.4-0.8-0.5-1.4-0.5c-0.4,0-1.2,0.7-7.2,5.7l-1.1,0.9
		c-5.3-2.7-14.8-0.9-21.4,2c-1.5,0.7-3.1,1.5-4.3,2.2c-1.3,0.9-2,1.6-2.3,2.2c-0.4,0.8-0.1,1.6,0.7,2.2c1.8,1.3,9.3,1.3,15.6,1.1
		l-0.8,0.7c-4.2,3.5-8.2,6.8-10.9,8.6c0-0.1-0.1-0.1-0.1-0.2c-0.2-0.2-0.5-0.3-0.7-0.3h0c-0.2,0-0.3,0.1-0.4,0.1
		c-1.1,0.8-2.4,1.9-2.1,2.6c0.1,0.4,0.2,0.7,0.5,0.9c0.2,0.1,0.4,0.2,0.7,0.2c0.1,0,0.2,0,0.3,0c1.5-0.3,6.5-4,16.7-12.6
		c3.1-0.2,6.2-0.4,8.7-0.6l1.2-0.1c-1.6,2.6-3,4.8-4.4,6.8c-1.6,2.3-2.1,3.2-1.9,3.7c0.3,0.7,0.8,1,1.3,0.8c0.4,0,0.9-0.4,2.3-1.9
		c1-1.1,2.8-3.4,4.2-6.3c0.5-1,0.9-2.2,1.2-3.3c1.6-0.1,2.6-0.2,2.6-0.2l0.1,0c0.2-0.1,0.3-0.3,0.4-0.5c0-0.2-0.1-0.5-0.2-0.6
		c-0.3-0.4-0.7-0.5-1.1-0.6c0,0-0.5,0.1-1.2,0.1c0.2-0.4,0.5-0.9,0.7-1.3L114.9,38.6z M108.3,49.1L108.3,49.1
		C108.3,49.1,108.3,49.1,108.3,49.1C108.3,49.1,108.3,49.1,108.3,49.1z M107.6,34.7c-1.5,1.3-3.1,2.6-4.8,4.1c-1,0.8-2,1.7-3,2.5
		c-12.5,0.6-15.9,0-16.8-0.4c0,0,0-0.1,0-0.1l0-0.1c0.3-0.6,1-1.2,2-1.9c1.4-0.9,2.7-1.6,4.1-2.2c6.1-2.6,14.3-4.3,19.1-2.5
		L107.6,34.7z M113.4,37.6c-0.4-1.3-1.2-2.4-2.3-3.3l1.2-1c2-1.7,3.9-3.2,5-4.2C116.8,30.8,115.5,33.5,113.4,37.6
		C113.5,37.6,113.4,37.6,113.4,37.6z M112,40.3l-0.2,0.3l-0.7,0.1c-2.2,0.2-5.1,0.4-8.2,0.6c2-1.7,4.2-3.5,6-5.1l1.2-1
		c0.9,0.7,1.5,1.5,1.7,2.4C112.1,38.3,112.1,39.2,112,40.3z"/>
</g>
</svg>
